<svg xmlns="http://www.w3.org/2000/svg" xmlns:xlink="http://www.w3.org/1999/xlink" width="32" height="6" viewBox="0 0 32 6"><defs><path id="uweka" d="M267 235.43c.002-.125 1.268.784 3.196.683 0 0 1.121-.032 2.819-.236 1.021-.121 20.18-3.704 23.37-.643.145.14.232.194.383.453.47 1.008.176 1.856-.435 2.125-.86.38-1.586.154-2.064-.407.002-.009.018 0 .048-.003.882-.06 1.058-.17 1.164-.552.11-.388-.415-.884-.588-1.002-.174-.118-.261-.142-.387-.195-3.09-1.288-20.548 1.085-21.24 1.167-.69.082-1.364.129-1.364.129-4.585.505-4.913-.722-4.902-1.519"/></defs><g><g transform="translate(-266 -233)"><use fill="#5f4638" xlink:href="#uweka"/><use fill="#fff" fill-opacity="0" stroke="#5f4638" stroke-miterlimit="50" stroke-width=".8" xlink:href="#uweka"/></g></g></svg>