<svg xmlns="http://www.w3.org/2000/svg" xmlns:xlink="http://www.w3.org/1999/xlink" width="223" height="137" viewBox="0 0 223 137"><defs><path id="6gp7a" d="M751.93 60.541c5.051-.202 8.05-3.405 8.095-3.01.289 2.504-.166 6.452-12.268 6.1l.054 51.263c.025.673.139 1.249.878 1.6.616.293.527.751-.12 1.047-.148.068-.309.113-.462.17-1.354.491-2.569.928-3.928 1.4-.223.078-.578.13-.707.012-.132-.121-.339-.46-.044-.8.519-.637.686-1.342.734-2.071V63.596c-3.08-.07-48.05-2.821-55.678 2.065-.31.199-.529.3-.941.718-.415.418-1.616 2.12-1.21 3.312.4 1.171.894 1.47 3.213 1.42.077 0 .116-.028.123 0-1.06 1.89-2.878 2.798-5.24 1.837-1.677-.684-2.718-3.27-1.822-6.57.307-.853.515-1.048.848-1.527 7.314-10.495 58.359-4.397 61.058-4.287 4.487.18 7.416-.023 7.416-.023m-53.933 66.61c-.002-1.108.194-31.975.016-38.826a21.57 21.57 0 0 0-.152-1.122c-.109-.645-.465-1.186-.998-1.58-1.07-.793-2.245-1.165-3.585-.882-1.66.352-3.111 1.108-4.448 2.117-1.517 1.542-2.49 3.522-2.82 5.776v.22c.06 6.155-.015 38.607-.015 38.607.035.46.091.752.152 1.12.109.646.457 1.476.99 1.87 1.07.794 2.253.877 3.593.593 1.658-.352 3.111-1.108 4.449-2.116 1.515-1.543 2.691-3.51 2.818-5.777m3.24-42.943a7.3 7.3 0 0 1 .492 2.632c-.003 6.577-.001 15.745-.001 15.745s-.02 17.022-.004 23.628c-.014.624-.033.916-.21 2.118-.176 1.202-.79 3.524-2.073 4.976-2.893 3.28-7.005 5.157-11.347 5.383-.602.032-1.215-.027-1.813-.117-1.779-.267-2.884-1.367-3.51-2.996a7.281 7.281 0 0 1-.492-2.632c.003-6.577.001-19.73.001-19.73s.02-13.038.004-19.643c-.003-.76.074-1.486.217-2.187.192-1.82.8-3.472 2.066-4.907 2.893-3.28 7.005-5.158 11.348-5.384.6-.03 1.216.028 1.812.117 1.779.269 2.884 1.367 3.51 2.997m30.326-15.366c.372-.036.592.178.404.492-.63 1.044-.487 2.183-.483 3.303.029 8.33-.009 44.36-.008 44.821.006 2.385-.546 4.525-2.127 6.325-2.877 3.279-6.964 5.155-11.286 5.38-.597.032-1.207-.026-1.8-.116-1.771-.267-2.87-1.366-3.493-2.995a7.311 7.311 0 0 1-.49-2.632v-1.699l-.028-.019c-.013-13.549.02-37.7.01-42.773 0-.996-.11-1.718-.89-2.424-.076-.07-.145-.133-.144-.303-.006-.265 1.612-.752 2.061-.876 1.746-.57 2.187-.788 2.554-.916.365-.128.403-.19.596-.163.194.028.254.168.243.372-.008.205-.277.462-.395.653-.119.191-.412 1.197-.444 1.639v3.692l.001 5.019h.02c-.016 11.473-.006 22.921 0 34.397 0 1.004.1 2.042.265 3.039.107.644.46 1.185.99 1.58 1.067.793 2.235 1.164 3.568.88 1.78-.38 3.325-1.227 4.742-2.356 1.03-.822 1.69-1.873 2.12-3.102.302-.863.355-1.747.355-2.65 0-.365-.005-39.323 0-44.228v-.608c.005-.61-.096-1.149-.753-1.423-.203-.076-.33-.274-.28-.463.024-.091.208-.251.351-.308 1.124-.444 2.864-1.011 3.994-1.44.132-.05.205-.084.347-.098m71.62 29.642c.129.077.31.151.321.36.005.124-.264.24-.432.294-1.436.463-3.24 1.039-4.68 1.49-.11.036-.223.073-.337.085-.39.04-.596-.21-.369-.513.872-1.156.64-2.383.301-3.617-3.747-13.583-7.5-27.165-11.257-40.744a6.323 6.323 0 0 0-.436-1.117c-.06-.12-.277-.25-.401-.233-.132.019-.248.145-.275.277-.078.389-.063.837-.064 1.235-.017 4.753.012 35.468 0 46.116v.602c-.005.603.097 1.136.76 1.407.205.074.336.27.283.456-.025.09-.21.249-.354.304-1.136.439-2.824 1.07-3.966 1.494-.134.05-.277.094-.42.106-.378.037-.6-.205-.41-.516.636-1.03.492-2.156.488-3.263-.037-10.162.011-42.435 0-48.359-.002-.985-.114-1.88-.903-2.577-.077-.068-.147-.132-.145-.301-.007-.26.863-.454 1.318-.577 1.454-.392 3.071-.725 4.506-1.18.931-.295 1.796-.793 2.69-1.197.224-.102.535-.287.658-.282.122.007.187.291.204.424.028.222-.06.423-.142.618-.417.992-.414 1.97-.136 3.016 2.709 10.155 5.388 20.317 8.078 30.477.07.265.187.92.39.93.228.007.25-.266.26-.474V72.62c-.001-9.019-.005-18.6-.006-24.903-.03-.615-.175-1.194-.84-1.596-.129-.077-.309-.152-.32-.36-.007-.125.264-.24.43-.294a640.02 640.02 0 0 1 4.681-1.491c.11-.035.223-.072.338-.084.39-.041.673.286.367.514-.837.623-1.003 2.031-1.038 2.995v.57c.004-.002.007-.004.01-.004 0 19.594.002 48.264 0 48.289 0 .837-.043 1.692.849 2.229M769.26 109.67c.127.079.306.154.317.366.006.127-.26.243-.427.298-1.419.47-3.204 1.052-4.627 1.511-.11.036-.222.072-.335.085-.384.04-.666-.29-.364-.52.829-.633.994-2.06 1.027-3.036V83.436c-.004-9.139-.007-18.848-.007-25.236-.03-.623-.172-1.21-.832-1.617-.126-.078-.304-.153-.315-.365-.006-.126.262-.242.426-.297 1.42-.47 3.206-1.053 4.627-1.511.11-.036.222-.073.336-.085.385-.042.666.29.363.52-.829.632-.994 2.06-1.027 3.035l.001 24.939.007 25.235c.03.624.172 1.21.83 1.616m62.398-76.666c.244-.031.381.137.33.38a1.42 1.42 0 0 1-.21.468c-.584.894-.816 1.904-.922 2.94-.192 1.89-.192 3.665-.403 5.554-.105.936-.337 2.02-.671 2.902-.218.581-.41.902-.753 1.239-.207.203-.483.349-.734.351-.24.003-.6-.129-.708-.349-.143-.289-.025-.547.202-.755.127-.118.262-.227.406-.319.612-.39.902-.933 1.117-1.608.375-1.184.523-2.415.11-3.585-.402-1.138-1.238-1.846-2.461-2.04-.901-.143-1.787-.028-2.636.26-2.012.682-4.004 1.427-6.02 2.102-.534.18-.504.534-.504.94.003 3.545.002 7.089.003 10.632l.004 7.605v1.197c0 .048-.003.092.008.105.014.017.076.012.117-.003l2.574-.908c.903-.353 2.18-.98 2.496-1.972.116-.362.518-.206.607.172.026.11.028.228.032.344.043 1.497.091 2.964.124 4.462.005.173-.018.465-.137.5-.2.06-.33-.085-.446-.179-.598-.487-1.194-.428-1.787-.251l-3.147 1.11c-.422.223-.445.496-.437 1.105.041 2.966.017 5.935.019 8.902.003 4.985.008 9.968.013 14.952v1.108c.668-.177 1.192-.31 1.712-.456 1.272-.358 2.554-.686 3.808-1.095 3.862-1.257 5.98-4.094 6.482-7.975.251-1.937.251-4.151.189-6.205-.03-1.02-.658-1.366-1.601-.988-.263.104-.614.352-.734.438-.12.086-.248.265-.403.25-.366-.054-.432-.482-.435-.794-.006-.9.453-1.542 1.2-1.96.774-.434 1.596-.467 2.389-.029.483.267.586.745.594 1.26.025 1.44.06 3.282.09 4.321.027 1.039-.049 5.098-.032 6.054.018.956-.045 3.39.49 4.996.024.07.087.167.076.21-.012.044-.252.167-.357.205-3.194 1.127-6.396 2.23-9.583 3.38-2.295.827-4.89 1.775-7.173 2.636-.482.183-.695.069-.644-.416.42-4.054.375-8.142.38-12.2.012-8.297.008-35.186.002-40.314-.001-.617.003-1.208-.564-1.635-.136-.102-.342-.419-.257-.592.042-.079.785-.245 1.156-.373 4.722-1.636 9.446-3.269 14.164-4.922.756-.264 1.474-.634 2.215-.948.21-.088.429-.182.65-.21m-167.29 70.445c11.369 10.244 14.123 25.717 7.803 39.848-6.48 14.493-18.157 24.046-32.993 26.368-5.563.872-11.769.081-17.455-2.78-16.202-7.757-15.642-28.27-5.544-39.771 4.76-5.442 12.875-9.148 20.328-8.966 7.452.18 13.055 4.166 14.696 8.265 1.64 4.097.604 9.037-.63 11.497-4.718 8.887-12.743 6.949-14.527 6.78-1.786-.17 4.616-2.713 6.138-5.398 1.521-2.684 1.722-5.663 1.6-8.473-.206-4.702-3.994-8.413-9.138-9.07-3.303-.617-9.476.955-12.95 4.032-7.194 6.374-11.07 14.205-9.62 23.966 2.078 9.571 9.963 15.751 19.09 16.71 16.778 1.046 30.386-9.058 35.376-26.308 3.373-11.655-1.062-23.496-11.955-31.1a176.668 176.668 0 0 0-14.974-9.349c-14.396-8.453-16.021-26.35-5.515-36.383 5.173-4.941 11.357-7.2 17.803-7.57 3.887-.256 7.596.17 11.977 2.988 4.38 2.818 6.203 10.144 3.054 14.122-1.2 1.372-3.448 2.598-5.738 2.23-2.29-.37-4.324-2.057-5.149-4.067.309-.48 4.188 1.342 5.699.2.926-.827 1.134-2.713.616-4.689-.516-1.975-2.394-4.61-7.578-5.685-5.184-1.076-11.647.877-15.035 3.138-6.84 4.04-9.044 15.965-2.96 22.592 3.868 4.214 11.573 7.178 13.868 8.273 2.778 1.228 9.762 5.04 13.713 8.6m80.95-61.03c-.17 0-.62 0-.62-.475 0-.189.102-.45.582-.613.32-.11.765-.164 1.325-.164h.001c.706 0 1.087.373 2.03 1.654l4.1 5.591c.265.362.47.65.632.885.025.037.047.07.066.095.02-.12.042-.313.049-.62l.016-.16.028-4.329c0-1.398-.264-1.707-.898-1.91-.256-.08-.492-.2-.492-.517 0-.3.223-.51.544-.51.107 0 .225.022.36.063.456.1.812.154 1.046.154h.002c.15 0 .318-.022.516-.068.183-.04.306-.057.404-.057.301 0 .546.244.546.546 0 .26-.146.365-.268.407l-.239.104c-.36.142-.532.5-.549 2.15l-.014 6.037c0 .19.013.57.043 1.194l.024.498c.014.295.025.5.034.607l.011.1c.01.108.02.198.02.242 0 .402-.2.546-.37.546-.295 0-.462-.367-.562-.641-.365-.949-.736-1.7-1.075-2.167l-4.128-5.68a5.815 5.815 0 0 0-.282-.345c-.013.08-.025.214-.025.432l-.118 4.942c0 1.599.2 1.876 1 2.123.321.094.479.288.479.592-.002.266-.18.437-.458.437-.085 0-.193-.018-.363-.059a8.9 8.9 0 0 0-1.305-.086 6.64 6.64 0 0 0-1.099.07c-.13.02-.26.02-.307.02-.304 0-.501-.193-.501-.49 0-.473.4-.525.551-.544.731-.096.958-.407.972-1.328l.059-6.414c0-.709-.166-1.299-.484-1.706-.308-.397-.752-.607-1.284-.607m-11.252.3c-.569.848-.884 2-.884 3.245 0 1.466.442 2.955 1.214 4.085.76 1.113 1.75 1.75 2.72 1.75.793 0 1.518-.448 2.042-1.262.538-.839.836-2.016.836-3.315 0-3.189-1.72-5.782-3.833-5.783-.796 0-1.54.455-2.095 1.28m2.744 10.243c-2.833-.001-5.228-2.937-5.228-6.415.001-3.348 2.337-6.287 4.998-6.287h.001c2.73 0 4.952 2.845 4.952 6.342 0 1.591-.516 3.203-1.413 4.421-.91 1.232-2.115 1.94-3.31 1.94m-12.38-3.13a1.408 1.408 0 0 0-.032.28c0 .262.11.548.329.853.42.595.889.883 1.433.883h.001c.528 0 1.064-.27 1.473-.742a2.703 2.703 0 0 0 .653-1.74c0-.63-.29-1.04-1.143-1.627-1.844-1.248-2.222-1.542-2.917-2.166-.577-.527-.907-1.18-.907-1.79 0-1.81 1.712-3.524 3.52-3.524h.002c1.04 0 2.081.559 2.474 1.328.068.098.11.239.11.385 0 .25-.11.587-.378 1.162-.052.101-.101.195-.167.29-.134.187-.296.278-.485.278-.233 0-.396-.148-.396-.36l.037-.298c.028-.206.039-.277.039-.361 0-.328-.16-.66-.44-.91a1.572 1.572 0 0 0-1.037-.4c-.635 0-1.25.439-1.568 1.12-.109.225-.164.45-.164.67 0 .426.257.826.837 1.297a24.94 24.94 0 0 0 1.828 1.34c1.41.915 1.86 1.385 2.095 2.181.095.273.146.576.146.869 0 1.377-.785 2.872-1.908 3.634-.47.325-1.007.477-1.688.477h-.001c-.82 0-1.532-.213-2.245-.67-.592-.398-.943-.874-.943-1.273 0-.44.29-1.25.648-1.806.083-.14.224-.332.443-.332.236 0 .41.19.41.45 0 .06 0 .161-.02.25zm-9.533 2.878c.739-.172.939-.369.939-1.43l.001-7.71c0-.898-.34-1.288-1.211-1.389-.156-.018-.633-.072-.633-.506 0-.151.07-.286.198-.38a.728.728 0 0 1 .425-.128h.002c.187 0 .46.028.766.076.809.16 1.594.162 2.457.057.432-.06.69-.075.775-.075.556 0 .753.299.753.581 0 .205-.114.456-.66.488-.85.066-1.182.408-1.182 1.221l-.002 7.45c-.001 1.513.212 1.72 1.05 1.893.43.082.76.174.76.541 0 .228-.155.47-.59.47-.072 0-.243-.015-.627-.057-.008.001-.08-.003-.196-.008-.14-.007-.347-.018-.622-.029l-.968-.056-.956.056-.826.02c-.448 0-.609-.254-.609-.49 0-.324.236-.428.44-.482l.516-.113m-9.496-6.148a1.26 1.26 0 0 0-.078.403c0 .161.426.174.555.174l1.567.036c.243 0 .243-.11.243-.19a1.2 1.2 0 0 0-.076-.4l-1.147-3.256c-.01.023-.023.052-.035.085l-1.029 3.148m-3.59 6.236c-.326 0-.535-.191-.535-.486 0-.207.13-.385.32-.443l.354-.106c.366-.108.771-.564.943-1.063l.326-.91 2.698-7.718c.2-.552.212-.586.315-1.3.04-.338.185-.513.43-.513.258 0 .35.192.408.38l.185.465.34.914 3.184 8.949c.158.479.517.872.94 1.033.201.08.413.19.413.493a.45.45 0 0 1-.462.468 1.52 1.52 0 0 1-.236-.027l-.07-.01a9.228 9.228 0 0 0-2.665-.053 2.4 2.4 0 0 1-.405.054.534.534 0 0 1-.384-.154.469.469 0 0 1-.133-.333c0-.195.09-.458.52-.603.5-.147.643-.31.643-1.109 0-.327-.034-.545-.117-.748l-.503-1.322c-.102-.272-.312-.4-1.233-.4h-1.314c-.836 0-.907.067-1.079.603l-.324.998a2.916 2.916 0 0 0-.14.887c0 .497.253.905.644 1.038.332.134.58.26.58.584 0 .291-.244.487-.608.487-.092 0-.195 0-.389-.04-.584-.095-.97-.138-1.247-.138-.234 0-.6.037-1.035.104-.16.02-.286.02-.364.02m-15.014-11.353c-.37-.033-.448-.256-.448-.438 0-.749.951-.749 1.31-.749.882.002 1.15.01 1.44.24.44.345.855.996 1.53 2.4l1.876 3.892c.022.055.055.122.096.213.055.116.127.27.214.462.154.346.262.601.325.746.023.079.046.13.062.163.014-.03.038-.075.066-.145l2.057-5.284c.06-.149.096-.236.107-.269.665-1.916.774-2.126 1.824-2.126h.002c.95 0 1.404.083 1.616.294.094.094.14.21.14.346 0 .188-.091.426-.53.492-.77.12-.915.194-.915 1.878l-.032 6.245c0 1.874.11 1.975.983 2.209h.005c.13.038.473.14.473.488 0 .265-.222.458-.527.458-.133 0-.269-.018-.443-.059-.563-.088-.72-.105-1.218-.105-.426 0-1.1.058-1.549.108a1.213 1.213 0 0 0-.16.012.922.922 0 0 1-.09.006c-.326 0-.543-.19-.543-.476 0-.389.236-.507.589-.563.637-.113.904-.384.904-1.77V44.3l-.022.053-1.66 4.287c-.09.249-.275.79-.536 1.584-.07.2-.123.36-.163.481a4.265 4.265 0 0 1-.088.256c-.177.57-.258.839-.528.839-.24 0-.34-.235-.373-.313a38.77 38.77 0 0 1-.418-1.074c-.106-.286-.214-.577-.348-.878l-1.874-4.266c-.13-.257-.22-.42-.28-.521a2.234 2.234 0 0 0-.01.123l-.015.188-.016 4.98c0 1.275.143 1.519 1.093 1.87.287.12.43.294.43.519 0 .099-.037.422-.497.422-.08 0-.21 0-.389-.02-.583-.076-1.141-.125-1.425-.125-.287 0-.676.036-1.157.105l-.058.012a1.075 1.075 0 0 1-.184.028.447.447 0 0 1-.465-.459c0-.189.09-.44.523-.56l.488-.144c.46-.126.558-.868.558-1.468v-.108l-.03-6.136c-.015-1.245-.24-1.952-.734-2.29-.208-.137-.411-.187-.986-.24"/></defs><g><g transform="translate(-609 -33)"><use fill="#5f4638" xlink:href="#6gp7a"/></g></g></svg>